<?xml version="1.0" encoding="utf-8"?>
<!-- Generator: Adobe Illustrator 14.0.0, SVG Export Plug-In . SVG Version: 6.00 Build 43363)  -->
<!DOCTYPE svg PUBLIC "-//W3C//DTD SVG 1.1//EN" "http://www.w3.org/Graphics/SVG/1.1/DTD/svg11.dtd">
<svg version="1.1" id="レイヤー_1" xmlns="http://www.w3.org/2000/svg" xmlns:xlink="http://www.w3.org/1999/xlink" x="0px"
	 y="0px" width="280px" height="130px" viewBox="0 0 280 130" enable-background="new 0 0 280 130" xml:space="preserve">
<g>
	<g>
		<path fill-rule="evenodd" clip-rule="evenodd" fill="#353535" d="M126.5,109.5l-7,10c0,1.657,1.344,3,3,3h35c1.656,0,3-1.343,3-3
			l-7-10H126.5z M197.5,7.5h-115c-5.523,0-10,4.478-10,10v81c0,5.522,4.477,10,10,10h115c5.523,0,10-4.478,10-10v-81
			C207.5,11.978,203.023,7.5,197.5,7.5z M140,104.5c-2.485,0-4.5-2.015-4.5-4.5s2.015-4.5,4.5-4.5s4.5,2.015,4.5,4.5
			S142.485,104.5,140,104.5z M202.5,86.5c0,2.762-2.238,5-5,5h-115c-2.762,0-5-2.238-5-5v-69c0-2.762,2.238-5,5-5h115
			c2.762,0,5,2.238,5,5V86.5z"/>
	</g>
</g>
</svg>
