<?xml version="1.0" encoding="utf-8"?>
<!-- Generator: Adobe Illustrator 14.0.0, SVG Export Plug-In . SVG Version: 6.00 Build 43363)  -->
<!DOCTYPE svg PUBLIC "-//W3C//DTD SVG 1.1//EN" "http://www.w3.org/Graphics/SVG/1.1/DTD/svg11.dtd">
<svg version="1.1" id="レイヤー_1" xmlns="http://www.w3.org/2000/svg" xmlns:xlink="http://www.w3.org/1999/xlink" x="0px"
	 y="0px" width="280px" height="130px" viewBox="0 0 280 130" enable-background="new 0 0 280 130" xml:space="preserve">
<g>
	<g>
		<path fill-rule="evenodd" clip-rule="evenodd" fill="#353535" d="M170,0h-60c-5.522,0-10,4.478-10,10v110c0,5.522,4.478,10,10,10
			h60c5.522,0,10-4.478,10-10V10C180,4.478,175.522,0,170,0z M132.5,6h15c0.828,0,1.5,0.672,1.5,1.5S148.328,9,147.5,9h-15
			c-0.828,0-1.5-0.672-1.5-1.5S131.672,6,132.5,6z M127.5,6c0.828,0,1.5,0.672,1.5,1.5S128.328,9,127.5,9S126,8.328,126,7.5
			S126.672,6,127.5,6z M140,127c-2.762,0-5-2.238-5-5s2.238-5,5-5s5,2.238,5,5S142.762,127,140,127z M175,110.117
			c0,1.593-1.343,2.883-3,2.883h-64c-1.657,0-3-1.29-3-2.883V17.883c0-1.592,1.343-2.883,3-2.883h64c1.657,0,3,1.291,3,2.883
			V110.117z"/>
	</g>
</g>
</svg>
